<svg width="135" height="100" viewBox="0 0 135 100" fill="none" xmlns="http://www.w3.org/2000/svg">
<path opacity="0.9" d="M80.3345 31.9489C80.1735 32.802 79.9448 33.6398 79.6479 34.4616C79.5907 34.9608 79.5314 35.4598 79.4692 35.9577C79.21 36.4774 78.8909 36.9558 78.5132 37.3932C77.3604 38.5884 76.1367 39.6954 74.8413 40.7135C73.3401 41.8543 71.8069 42.9508 70.2427 44.0036C69.8015 44.4456 69.3639 44.8844 68.9292 45.32C68.6243 45.5802 68.2855 45.6402 67.9136 45.4996C67.4708 45.1163 67.0433 44.7067 66.6304 44.2731C66.4641 44.0805 66.3841 43.8613 66.3911 43.6149C66.5557 43.5236 66.7347 43.4833 66.9282 43.4948C67.4034 43.5689 67.8816 43.629 68.3618 43.6744C68.7192 43.6505 69.0676 43.5815 69.4067 43.4655C70.4444 42.9461 71.3996 42.3073 72.2729 41.5504C74.9067 39.2514 77.2654 36.7092 79.3491 33.9235C79.6715 33.2826 79.9407 32.6242 80.1557 31.9489H80.3345ZM76.8686 32.3082C77.0566 32.291 77.2355 32.321 77.4057 32.3981C77.6302 32.6524 77.7902 32.9413 77.8843 33.2653C77.8685 33.4165 77.8187 33.5563 77.7348 33.6842C75.7028 36.2984 73.3432 38.5618 70.6577 40.4743C69.2143 41.2671 67.7616 42.0449 66.2993 42.8073C65.9034 43.0112 65.4845 43.0909 65.0444 43.0465C64.9379 42.9996 64.8483 42.9291 64.7759 42.8366C64.586 42.2114 64.7553 41.7028 65.2837 41.3112C67.1278 40.1982 68.8992 38.9816 70.5981 37.6618C71.7129 36.7843 72.8281 35.9073 73.9429 35.0299C74.7771 34.254 75.5932 33.4566 76.3911 32.6373C76.5445 32.5125 76.7037 32.4027 76.8686 32.3082ZM54.477 34.9996C54.7631 35.0432 55.0221 35.1532 55.2534 35.3287C56.7758 36.3805 58.309 37.4179 59.852 38.4401C60.414 38.7831 60.9912 39.1021 61.5835 39.3971C61.9906 39.5415 62.4087 39.6409 62.8374 39.6959C63.6164 39.7348 64.393 39.7047 65.1665 39.6061C65.1689 39.7811 65.119 39.9405 65.0171 40.0846C64.5891 40.4734 64.1618 40.8628 63.7339 41.2516C63.3986 41.4436 63.04 41.5026 62.6587 41.4303C60.1886 39.7943 57.7602 38.0993 55.3735 36.3453C55.0849 36.136 54.8354 35.8874 54.6264 35.5983C54.5067 35.4167 54.4567 35.2169 54.477 34.9996ZM62.8979 2.81703C63.6575 2.7251 64.3739 2.85544 65.0473 3.20668C65.2135 3.333 65.3332 3.49258 65.4057 3.68519C65.3902 3.76029 65.3504 3.8198 65.2866 3.8639C63.6382 4.79918 62.105 5.89666 60.688 7.15492C59.8446 7.95935 59.1376 8.8666 58.5679 9.8766C58.023 11.2748 57.5259 12.6906 57.0757 14.1237C56.3426 16.9575 56.2626 19.8094 56.8364 22.6784C57.4248 25.2594 58.8084 27.2838 60.9868 28.7506C63.1339 29.9495 65.4032 30.2487 67.7944 29.6481C68.1548 29.5444 68.5135 29.4346 68.8696 29.319C68.8894 29.3388 68.9094 29.3587 68.9292 29.3786C68.3094 30.2268 67.4733 30.7155 66.4214 30.8444C65.5279 30.9367 64.6317 30.9573 63.7339 30.9049C63.1891 30.8232 62.6515 30.7134 62.1216 30.5758C62.0238 30.8598 61.9437 31.1489 61.8823 31.443C61.8702 31.6977 61.97 31.8976 62.1811 32.0416C62.4386 32.2006 62.7175 32.3002 63.0171 32.3405C66.7899 32.5587 69.9647 31.2922 72.5415 28.5416C72.8234 28.1994 73.0822 27.8401 73.3179 27.4645C74.0792 26.0532 74.6769 24.5777 75.1098 23.0377C75.1909 21.8027 75.2502 20.5663 75.2886 19.3287C75.329 19.0473 75.4391 18.7977 75.6177 18.5807C75.842 18.5106 76.0107 18.5808 76.1245 18.7907C76.3777 19.1928 76.5379 19.6312 76.603 20.1061C76.7419 21.3238 76.5819 22.5011 76.1245 23.6364C75.6477 24.8508 75.0904 26.0274 74.4526 27.1657C74.3391 27.3522 74.2995 27.5515 74.3335 27.7633C74.4084 27.8884 74.5177 27.9486 74.6616 27.943C75.7181 27.5729 76.4852 26.875 76.9614 25.8493C77.2677 24.9605 77.5465 24.0633 77.7973 23.1578C77.9112 22.4448 77.9704 21.7262 77.9761 21.0036C78.0589 20.9406 78.1484 20.9312 78.2446 20.9743C78.6963 21.595 78.896 22.2931 78.8423 23.068C78.7986 24.0967 78.5689 25.0838 78.1548 26.0289C77.3765 28.2676 76.2027 30.262 74.6323 32.0114C72.9482 33.9984 71.0272 35.7037 68.8696 37.1266C67.4011 38.0975 65.7886 38.5356 64.0327 38.442C63.2086 38.3263 62.4319 38.0673 61.7036 37.6647C60.8157 37.2333 60.009 36.6845 59.2847 36.0192C59.1852 35.8797 59.0863 35.7397 58.9868 35.6002C58.8332 35.1465 58.9818 34.9775 59.4341 35.0924C59.7449 35.308 60.0838 35.4572 60.4497 35.5407C60.7091 35.5491 60.8383 35.4297 60.8374 35.1823C59.9033 34.346 58.9178 33.5777 57.8813 32.8786C56.5004 31.8739 55.2964 30.6872 54.269 29.319C53.4855 28.2587 53.5354 27.2419 54.4184 26.2682C55.2798 27.1178 56.0857 28.0157 56.8364 28.9606C57.5418 29.727 58.3881 30.275 59.3745 30.6051C59.7461 30.6686 60.1048 30.6292 60.4497 30.486C60.5244 30.2354 60.4443 30.0355 60.2104 29.8873C58.5578 28.7104 57.1939 27.2649 56.1196 25.5504C55.3365 24.1339 54.879 22.6179 54.7466 21.0036C54.4626 18.6839 54.6019 16.3903 55.1645 14.1237C55.423 13.1277 55.6819 12.1303 55.9409 11.1325C56.4142 9.76977 56.9912 8.45347 57.6723 7.18422C58.7414 5.73441 60.0254 4.50827 61.5239 3.5055C61.9706 3.24187 62.4289 3.01205 62.8979 2.81703ZM72.3911 30.7536C71.3187 31.551 70.2634 32.3784 69.2261 33.236C67.3235 34.56 65.2131 35.0984 62.896 34.8512C62.3445 35.0074 62.2845 35.2664 62.7163 35.6286C63.5365 35.9843 64.393 36.2038 65.2847 36.2868C66.3353 36.4094 67.3305 36.2302 68.27 35.7487C69.5873 34.9735 70.792 34.0458 71.8833 32.9664C72.3039 32.5225 72.6025 32.0043 72.7788 31.4118C72.8276 31.2046 72.8077 31.0046 72.7192 30.8131C72.6179 30.759 72.5084 30.7394 72.3911 30.7536ZM82.0679 18.1901C82.4435 18.2191 82.7524 18.3786 82.9936 18.6686C83.9132 20.2754 84.5506 21.9902 84.9048 23.8131C85.2105 27.2667 84.7128 30.5975 83.4116 33.8043C82.8987 35.0065 82.0123 35.7637 80.7544 36.0768C80.3937 36.065 80.244 35.8859 80.3061 35.5387C80.6288 35.1557 81.0072 34.8368 81.4409 34.5817C81.7998 34.1023 82.0981 33.5836 82.3364 33.026C83.4936 30.1506 83.8522 27.1797 83.4116 24.1129C83.0258 22.3271 82.5275 20.572 81.9184 18.8483C81.8474 18.5946 81.8977 18.375 82.0679 18.1901ZM57.7026 0.00257494C58.8427 -0.0306849 58.9423 0.258262 58.0014 0.869762C55.6147 2.06425 53.674 3.76959 52.1792 5.985C50.9958 8.03371 50.3587 10.2474 50.2681 12.6256C50.3592 14.4842 50.2001 16.319 49.7905 18.1295C49.6754 19.1036 49.5953 20.0804 49.5513 21.0602C49.5114 22.8149 49.5114 24.5701 49.5513 26.3248C49.619 26.593 49.7884 26.7027 50.0591 26.6539C50.2057 26.5099 50.3149 26.3401 50.3872 26.1452C51.1608 23.7829 51.719 21.3702 52.06 18.9069C52.2789 16.0365 52.4775 13.165 52.6567 10.2926C52.8598 8.32383 53.6166 6.60823 54.9263 5.14711C56.309 3.6812 57.832 2.395 59.4946 1.28871C60 0.927997 60.5573 0.808769 61.1665 0.930309C61.4107 0.985185 61.5303 1.13439 61.5249 1.37855C61.5269 1.55396 61.477 1.71352 61.3755 1.85707C61.1665 2.06637 60.9574 2.2757 60.7485 2.485C58.5647 3.83501 56.7236 5.56024 55.2251 7.6598C54.4672 8.8616 54.0691 10.1779 54.0307 11.608C53.8828 13.5633 53.7228 15.5181 53.5522 17.4713C53.1708 19.8869 52.7727 22.2997 52.3579 24.7096C51.8436 27.7494 52.6106 30.4114 54.6577 32.6959C55.0558 32.995 55.4539 33.2943 55.852 33.5934C56.4856 34.1995 56.3659 34.3195 55.4936 33.9528C54.393 33.4089 53.4273 32.681 52.5972 31.7692C52.2541 31.2657 51.8662 30.7966 51.4331 30.3629C50.9925 30.0089 50.7732 30.1086 50.7759 30.6618C50.8559 31.4607 51.1244 32.1889 51.5815 32.8453C52.0533 33.2023 52.4919 33.6019 52.896 34.0426C52.9888 34.1452 53.0389 34.2646 53.0454 34.401C52.5154 34.2851 52.0371 34.0562 51.6118 33.7135C49.1619 31.7473 47.7783 29.1846 47.4614 26.026C47.2897 23.9936 47.2699 21.959 47.4018 19.9235C47.7733 16.3482 48.3108 12.7985 49.0141 9.27504C49.7927 6.1432 51.4748 3.62068 54.06 1.70765C55.1754 0.913839 56.3897 0.345369 57.7026 0.00257494ZM86.1274 19.7438C86.2521 19.7475 86.3416 19.8076 86.396 19.9235C87.5515 22.7014 88.0693 25.5932 87.9487 28.5983C87.8884 29.6161 87.59 30.5533 87.0532 31.4098C86.5654 32.1012 85.9083 32.4802 85.0825 32.5465C85.0425 32.387 85.0425 32.2275 85.0825 32.068C85.9787 31.2477 86.5162 30.2306 86.6948 29.0172C86.8274 27.9289 86.7078 26.8716 86.3364 25.8463C85.9907 25.2261 85.7516 24.5676 85.6196 23.8717C85.582 22.667 85.6618 21.4707 85.8589 20.2828C85.918 20.0851 86.0074 19.905 86.1274 19.7438ZM70.604 8.13929C72.8209 8.019 74.8118 8.62694 76.5757 9.96351C78.6243 11.4769 80.2667 13.3417 81.5024 15.5573C81.5388 15.7808 81.5193 16.0003 81.4429 16.2155C81.1261 16.5035 80.7879 16.7627 80.4282 16.9928C80.3164 17.1087 80.2666 17.2485 80.2788 17.4118C81.5268 20.4225 81.9543 23.5537 81.562 26.8043C81.3279 28.6999 80.4824 30.2452 79.0249 31.4401C78.4677 31.5996 78.1787 31.3904 78.1587 30.8121C78.8119 29.7781 79.3889 28.7012 79.8901 27.5817C80.1626 26.7877 80.3019 25.9697 80.3081 25.1286C80.4364 23.1448 80.2576 21.1907 79.771 19.2662C79.4434 18.1506 78.8863 17.1732 78.0991 16.3346C77.124 15.2375 75.9792 14.3707 74.6655 13.733C73.6013 13.3768 72.5263 13.0568 71.4409 12.775C71.3216 12.7153 71.2018 12.6561 71.0825 12.5963C70.9693 12.4882 70.9392 12.3577 70.9927 12.2067C71.7343 11.4609 72.6201 11.2121 73.6499 11.4596C74.1018 11.6262 74.5398 11.8252 74.9634 12.0573C76.0589 12.7655 77.1339 13.5038 78.188 14.2711C78.3591 14.3583 78.5389 14.378 78.7261 14.3307C78.7497 13.9813 78.6603 13.6519 78.4575 13.3434C77.0671 11.7241 75.325 10.6773 73.2319 10.2028C71.8732 9.94118 70.579 10.1213 69.3501 10.7418C68.4974 11.2177 67.9305 11.9253 67.6489 12.8649C67.6091 13.0842 67.6091 13.3037 67.6489 13.5231C67.7239 13.6483 67.833 13.7084 67.977 13.7028C69.1683 13.3952 70.3627 13.3849 71.56 13.6725C72.1626 13.8584 72.6897 14.168 73.1421 14.6002C73.543 15.0616 73.9214 15.54 74.2768 16.0358C74.4675 16.3381 74.6267 16.6572 74.7544 16.9928C74.8044 17.2198 74.7846 17.4393 74.6948 17.651C74.612 17.714 74.5224 17.7243 74.4263 17.6813C73.8291 17.123 73.2324 16.5638 72.6352 16.0055C71.2856 14.917 69.8117 14.7181 68.2153 15.4078C66.2228 16.4828 65.8649 17.9584 67.1411 19.8346C67.5753 20.1858 68.0733 20.3856 68.6343 20.4332C68.739 20.6621 68.6789 20.8416 68.4546 20.9713C66.951 21.5926 65.8262 21.1837 65.0806 19.7448C64.6531 18.7275 64.5138 17.6703 64.6626 16.5739C64.5019 15.9356 64.2232 15.8763 63.8266 16.3952C63.0679 17.4642 62.8889 18.6209 63.2895 19.8649C63.4939 20.2431 63.7624 20.5718 64.0952 20.8512C64.6199 21.2372 65.1274 21.6464 65.6177 22.0778C65.673 22.382 65.544 22.5518 65.23 22.5866C64.68 22.6031 64.1822 22.4437 63.7368 22.108C62.9622 21.4848 62.4153 20.6968 62.0952 19.7448C61.5334 18.1273 61.5927 16.5317 62.2739 14.9586C63.0531 13.1215 64.337 11.7753 66.1255 10.9205C66.665 10.2803 67.2627 9.70248 67.9175 9.18617C68.7434 8.64154 69.6388 8.29247 70.604 8.13929ZM62.9575 8.79652C63.482 8.74549 63.98 8.83555 64.4507 9.06605C64.7705 9.34309 64.7508 9.60233 64.3911 9.8434C62.9789 10.7196 61.874 11.8865 61.0766 13.3434C60.6631 14.3182 60.424 15.3351 60.3598 16.3942C60.2916 17.5756 60.3311 18.7521 60.479 19.9235C60.6514 20.8166 60.9801 21.6442 61.4643 22.4059C61.4557 22.4521 61.4359 22.4925 61.4048 22.526C61.0665 22.5459 60.7284 22.5657 60.3901 22.5856C60.1502 22.6263 60.0504 22.7661 60.0913 23.0045C60.4747 24.4062 61.2907 25.483 62.5395 26.235C63.9168 27.0015 65.3898 27.3007 66.9585 27.1325C69.7039 27.0202 71.6248 25.7135 72.7212 23.2135C73.0186 22.3402 73.2973 21.4629 73.5571 20.5817C73.6728 20.5003 73.7726 20.5201 73.8559 20.6412C73.9274 20.796 73.9867 20.9557 74.0347 21.1198C74.1451 24.419 72.7023 26.7426 69.7056 28.0895C66.7077 29.3002 63.8409 29.061 61.1059 27.3717C60.3444 26.8325 59.7569 26.1439 59.3442 25.3073C58.6467 23.7057 58.3482 22.0309 58.4487 20.2828C58.6295 17.9613 58.9881 15.6679 59.5239 13.403C59.7744 12.3631 60.1725 11.3857 60.7182 10.4713C61.0248 10.1044 61.3534 9.75528 61.7036 9.42445C62.0944 9.14897 62.5124 8.93971 62.9575 8.79652ZM74.1841 1.85902C80.2989 1.58964 85.3845 3.72377 89.4409 8.26039C92.7729 12.4465 93.9276 17.1725 92.9048 22.4381C92.7567 23.0429 92.5371 23.6219 92.2475 24.1735C91.8479 24.6205 91.6094 24.5409 91.5317 23.9342C91.5084 23.2355 91.4677 22.5373 91.4116 21.8405C91.3871 21.7262 91.3179 21.6662 91.2026 21.6608C90.9086 21.7745 90.7595 21.9942 90.7554 22.319C90.7858 23.8666 90.6662 25.4024 90.397 26.9254C90.3098 27.2479 90.2097 27.5672 90.0981 27.8825C90.0091 28.1431 89.8392 28.3226 89.5903 28.4205C89.6428 23.6144 88.698 18.9878 86.7544 14.5416C85.7458 12.291 84.3625 10.307 82.604 8.58949C81.2592 7.40123 79.8453 6.30471 78.3638 5.29945C76.8295 4.27208 75.1379 3.79273 73.2886 3.86293C72.9177 3.83426 72.5589 3.75454 72.2134 3.62367C71.988 3.447 71.9184 3.2178 72.0044 2.93617C72.2262 2.58069 72.5351 2.33106 72.9302 2.18812C73.3488 2.05092 73.7671 1.94107 74.1841 1.85902ZM52.5054 0.36195C52.6344 0.339091 52.7335 0.378754 52.8032 0.481091C52.5693 0.884841 52.301 1.26394 51.9975 1.61781C50.7093 2.80291 49.7144 4.19896 49.0122 5.80531C47.5809 9.24737 46.6048 12.8174 46.0854 16.5143C45.67 19.0903 45.511 21.6824 45.6079 24.2907C45.7013 25.4336 45.8303 26.5707 45.9956 27.7008C45.8944 27.7103 45.7951 27.7009 45.6977 27.6715C44.9383 26.8976 44.4705 25.9699 44.2944 24.8893C44.1517 23.9372 44.1112 22.9801 44.1743 22.0182C44.5749 18.1344 45.2724 14.3054 46.2651 10.5319C46.9455 8.19181 47.8407 5.93841 48.9516 3.77211C49.4813 2.80232 50.1486 1.93464 50.9526 1.16957C51.4325 0.81954 51.9502 0.550334 52.5054 0.36195ZM69.4663 16.276C70.6341 16.2383 71.6195 16.6369 72.4223 17.4723C72.9048 18.1579 73.0639 18.9158 72.8999 19.7457C72.5695 21.1929 71.8429 22.3993 70.7202 23.3649C68.9573 24.8956 66.9072 25.6339 64.5698 25.5787C63.2787 25.4503 62.3629 24.802 61.8227 23.6344C61.8269 23.5583 61.8467 23.488 61.8823 23.4244C62.0216 23.3846 62.161 23.3846 62.3003 23.4244C62.9407 23.5918 63.5779 23.7719 64.2114 23.9635C66.1353 23.9802 67.8871 23.4417 69.4663 22.3483C70.8585 21.3258 71.1673 20.0389 70.3921 18.4889C70.1347 18.2302 69.8259 18.1411 69.4663 18.2203C69.0594 18.4442 68.6414 18.6338 68.2124 18.7887C67.4818 18.6007 67.3123 18.1814 67.7046 17.5319C68.1641 16.9283 68.7515 16.5099 69.4663 16.276ZM47.6733 2.39613C47.8101 2.38089 47.9392 2.40151 48.061 2.45668C48.0974 2.70673 48.0579 2.94615 47.9419 3.17445C46.7192 5.30526 45.7234 7.53871 44.9556 9.87465C43.8827 13.7492 43.3057 17.6975 43.2241 21.7194C43.1954 21.9604 43.1559 22.1998 43.105 22.4371C43.0803 22.4645 43.0501 22.4842 43.0151 22.4967C42.8727 22.3633 42.7635 22.2037 42.687 22.0182C42.1537 20.4845 41.9947 18.9094 42.2095 17.2926C42.7158 14.3862 43.3719 11.5147 44.1792 8.67836C44.522 7.58817 44.9005 6.51104 45.3139 5.44789C45.8693 4.24448 46.6561 3.22672 47.6733 2.39613ZM79.4399 3.77308C79.2874 4.02129 79.3475 4.23171 79.6196 4.40199C80.6677 4.97662 81.6432 5.65414 82.5454 6.43519C83.8729 7.76503 85.1567 9.13178 86.397 10.5338C86.914 11.2111 87.3727 11.9288 87.771 12.6871C88.7109 14.6704 89.6663 16.6451 90.6372 18.61C90.7666 18.7792 90.8955 18.9486 91.0249 19.1178C91.3042 19.3385 91.5541 19.3083 91.772 19.028C92.0226 18.3103 92.1015 17.5725 92.0102 16.8151C91.8281 15.8685 91.5493 14.9509 91.1743 14.0631C89.9794 11.4598 88.3369 9.17658 86.2475 7.21351C84.8551 5.87737 83.2631 4.83972 81.4712 4.10218C80.8186 3.8437 80.1409 3.7339 79.4399 3.77308ZM71.3169 5.14808C74.0981 5.00672 76.6064 5.75433 78.8413 7.39125C81.0372 9.11201 82.799 11.1963 84.1264 13.6432C84.6507 14.5541 85.128 15.4915 85.5591 16.4547C85.8284 17.097 85.8886 17.7555 85.7388 18.4293C85.531 18.5801 85.3219 18.5696 85.1118 18.3991C84.4437 17.8086 83.8956 17.1208 83.4692 16.3356C81.6992 11.731 78.4645 8.68994 73.7651 7.21254C73.4442 7.16559 73.1259 7.1055 72.81 7.03285C71.8148 7.01293 70.819 6.9932 69.8237 6.97328C69.1972 6.96482 68.9684 6.65524 69.1372 6.04554C69.3438 5.7767 69.613 5.58726 69.9438 5.47718C70.4075 5.35596 70.8652 5.24616 71.3169 5.14808ZM43.1899 6.52504C43.6378 6.44523 43.8072 6.62439 43.6977 7.06312C43.0439 8.27091 42.5064 9.52711 42.0854 10.8317C41.9201 11.4207 41.8005 12.0192 41.727 12.6266C41.6761 13.4251 41.6168 14.2233 41.5483 15.0202C41.412 15.5712 41.2528 15.5711 41.0708 15.0202C40.2985 12.2282 40.7559 9.65523 42.4438 7.30238C42.6645 7.01167 42.9132 6.75252 43.1899 6.52504ZM83.5024 1.85804C84.865 1.83056 86.1391 2.15989 87.3237 2.84535C89.5774 4.18569 91.3996 5.9707 92.7886 8.19984C93.5611 9.42776 93.9882 10.7638 94.0718 12.2077C94.1398 12.7727 94.0203 13.2914 93.7134 13.7633C93.5266 13.9155 93.3777 13.8753 93.2661 13.6432C93.0834 12.6723 92.8442 11.7153 92.5493 10.7721C92.0961 9.96403 91.6586 9.14608 91.2358 8.31898C90.0516 6.89321 88.7468 5.58749 87.3237 4.40101C87.0449 4.22156 86.7666 4.0414 86.4878 3.86195C85.4925 3.38344 84.4977 2.90492 83.5024 2.4264C83.1853 2.22534 83.1853 2.03584 83.5024 1.85804ZM66.8413 5.20668C67.1758 5.17134 67.4943 5.22105 67.7964 5.35609C67.8622 5.49973 67.8726 5.64983 67.8266 5.80531C67.4396 6.3993 66.9812 6.93771 66.4526 7.42054C66.3109 7.67471 66.1621 7.92434 66.0054 8.16859C65.9192 8.2153 65.8391 8.2049 65.7661 8.13832C65.729 7.95514 65.679 7.77576 65.6167 7.60023C65.5468 7.5169 65.4573 7.46618 65.3481 7.44984C64.8722 7.41347 64.4044 7.46419 63.9448 7.60023C63.6184 7.57074 63.5383 7.41034 63.7056 7.12074C64.6265 6.27571 65.6723 5.63787 66.8413 5.20668Z" fill="white"/>
<path opacity="0.9" d="M62.8115 51.273C62.9183 51.3882 62.9768 51.5275 62.9893 51.691H62.9922C63.0462 51.8199 63.0849 51.9592 63.1104 52.109L63.1133 52.1099C63.1691 52.1739 63.1898 52.2535 63.1738 52.3492H63.1709C63.2549 52.5116 63.2948 52.6906 63.29 52.8863C60.214 52.8761 57.1381 52.8717 54.0625 52.8717C57.1377 52.8717 60.2133 52.8771 63.2891 52.8873C63.3479 53.1754 63.3875 53.4742 63.4082 53.7838V54.2027C60.8253 54.1976 58.2426 54.1959 55.6602 54.1959C58.2432 54.1959 60.8266 54.1986 63.4102 54.2037V53.7847C63.4858 54.2716 63.5253 54.7697 63.5293 55.2799L63.5664 55.5728C63.5961 55.8678 63.6034 56.1698 63.5889 56.4771C63.6483 57.4036 63.6681 58.3412 63.6484 59.2886V59.8863H63.6475V61.0826C62.766 61.0875 61.8848 61.0894 61.0039 61.0894C61.8855 61.0894 62.7673 61.0875 63.6494 61.0826V59.2877C63.709 61.1319 63.7287 62.9866 63.709 64.8511C60.6003 64.8805 57.4952 64.8514 54.3936 64.7623C54.1126 64.6582 53.8339 64.5486 53.5576 64.4332C53.4412 63.29 53.2821 62.153 53.0801 61.023H53.0781C53.0175 60.6384 52.9375 60.2596 52.8389 59.8863H52.8398C52.6925 59.4039 52.5332 58.9258 52.3623 58.4517H52.3613C52.1401 58.0294 51.9011 57.6101 51.6445 57.1949C55.6281 57.2146 59.6093 57.1946 63.5879 57.1353V58.4508H63.5889V57.1344C59.6103 57.1936 55.629 57.2137 51.6455 57.1939C51.3697 56.798 51.0712 56.419 50.75 56.0572C49.8885 55.2941 48.9328 54.6762 47.8838 54.2037C50.4706 54.1986 53.0581 54.1959 55.6455 54.1959C53.0574 54.1959 50.4693 54.1976 47.8818 54.2027C46.8559 53.7781 45.8408 53.34 44.8369 52.8873C46.3707 52.8822 47.9046 52.8781 49.4385 52.8756C47.9049 52.8781 46.3714 52.8812 44.8379 52.8863C44.528 52.7607 44.2287 52.6221 43.9414 52.4683L43.9434 52.4674C43.7134 52.3623 43.4949 52.2436 43.2881 52.1099C46.5912 52.0971 49.8946 52.0904 53.1982 52.0904C49.8937 52.0904 46.5891 52.0971 43.2852 52.1099C43.0661 52.0203 42.868 51.8998 42.6895 51.7506L42.6865 51.7515C42.4369 51.6564 42.2183 51.5167 42.0303 51.3326C48.9662 51.3218 55.8936 51.3017 62.8115 51.273ZM61.917 49.4781C61.9907 49.5654 62.0502 49.6652 62.0957 49.7769C60.285 49.8565 58.4539 49.8961 56.6025 49.8961C55.2434 49.8901 53.8837 49.8864 52.5244 49.8834C53.8839 49.8864 55.2432 49.8911 56.6025 49.897C58.4542 49.897 60.2857 49.8575 62.0967 49.7779C62.2063 49.9182 62.2857 50.0776 62.335 50.2554L62.3965 50.3345C62.4526 50.4171 62.4916 50.5107 62.5137 50.6148L62.5752 50.6929C62.6313 50.7752 62.6693 50.8685 62.6914 50.9722C62.693 50.9722 62.6947 50.9722 62.6963 50.9722C62.7817 51.0488 62.8213 51.1485 62.8154 51.2711C55.8974 51.2998 48.9701 51.3199 42.0342 51.3306C41.863 51.275 41.7234 51.1753 41.6162 51.0318L41.6133 51.0328C41.4322 50.9419 41.2721 50.8228 41.1348 50.6744C40.9592 50.5979 40.8203 50.4783 40.7178 50.316C40.523 50.2209 40.3637 50.0806 40.2402 49.897C44.3299 49.8791 48.4192 49.8734 52.5078 49.8824C48.4192 49.8734 44.33 49.8781 40.2402 49.8961C40.101 49.7962 39.9814 49.677 39.8818 49.5377C47.2365 49.4916 54.5816 49.4721 61.917 49.4781ZM61.3789 48.7603C61.5272 48.8979 61.6468 49.0576 61.7373 49.2388C61.8247 49.295 61.8847 49.374 61.916 49.4771C54.5807 49.4711 47.2354 49.4906 39.8809 49.5367C39.7619 49.4574 39.6625 49.3579 39.583 49.2388L39.4521 49.1304C39.3252 49.0183 39.209 48.895 39.1045 48.7603H61.3789ZM57.5596 45.2906C57.7519 45.4162 57.9316 45.5564 58.0977 45.7095H58.0957C58.3885 45.866 58.6472 46.0645 58.8711 46.3062H58.874C59.2285 46.5222 59.5468 46.7819 59.8291 47.0845C59.8278 47.0846 59.8265 47.0845 59.8252 47.0845C60.0839 47.3041 60.323 47.5433 60.542 47.8023C60.6415 47.8621 60.7216 47.9417 60.7812 48.0416C53.3939 48.1013 45.9962 48.1208 38.5889 48.1011C45.997 48.1208 53.3951 48.1013 60.7832 48.0416C61.039 48.236 61.2386 48.4752 61.3809 48.7594H39.1064C38.9065 48.559 38.7277 48.3392 38.5693 48.1011H38.5664C38.4917 48.0115 38.4323 47.9116 38.3877 47.8023C38.2343 47.5954 38.0949 47.3756 37.9697 47.1441C39.7939 47.1491 41.6175 47.151 43.4404 47.151C41.6185 47.151 39.7958 47.149 37.9727 47.1441C37.8565 46.8914 37.7565 46.633 37.6738 46.3677H37.6729C37.5359 46.1961 37.4558 45.9964 37.4336 45.7691C40.8778 45.779 44.3196 45.779 47.7588 45.7691C44.3202 45.779 40.8791 45.779 37.4355 45.7691C37.3421 45.6489 37.2828 45.5093 37.2568 45.3502C44.0344 45.3699 50.802 45.3504 57.5596 45.2906ZM49.3174 39.1285C49.7485 39.7998 50.286 40.3778 50.9297 40.8629H50.9277C51.286 41.1221 51.6446 41.382 52.0029 41.6412C52.4499 41.9547 52.9068 42.2538 53.374 42.5377C53.3759 42.5376 53.378 42.5377 53.3799 42.5377C53.8178 42.8169 54.2555 43.0964 54.6934 43.3756C52.5513 43.4204 50.4035 43.4429 48.25 43.4429C50.4035 43.4429 52.5513 43.4204 54.6934 43.3756C55.0914 43.6345 55.4896 43.8949 55.8877 44.1539C55.8864 44.1539 55.8851 44.1539 55.8838 44.1539C56.122 44.3132 56.3604 44.4721 56.5986 44.6314C56.5999 44.6314 56.6012 44.6314 56.6025 44.6314C56.921 44.851 57.2401 45.0701 57.5586 45.2896C50.8009 45.3494 44.0326 45.3689 37.2549 45.3492C37.1754 45.1298 37.0952 44.9113 37.0156 44.692C37.7747 44.6969 38.5332 44.6978 39.291 44.6978C38.5339 44.6978 37.776 44.6969 37.0176 44.692C36.9696 44.5079 36.9102 44.3284 36.8389 44.1539H36.8369C36.769 43.9099 36.6889 43.6706 36.5977 43.4361C37.244 43.441 37.89 43.442 38.5352 43.442C37.8894 43.442 37.2427 43.4401 36.5957 43.4351C36.5041 43.1596 36.4249 42.8806 36.3574 42.5982C38.6367 42.6181 40.9061 42.5974 43.165 42.5377C43.5632 42.8169 43.9612 43.0964 44.3594 43.3756C42.4264 43.4204 40.4874 43.4419 38.543 43.442C40.488 43.442 42.4277 43.4204 44.3613 43.3756C44.6992 43.6145 45.0362 43.8544 45.374 44.0933C45.3753 44.0933 45.3766 44.0934 45.3779 44.0933C45.6191 44.2734 45.8581 44.4535 46.0947 44.6324C46.2865 44.7434 46.475 44.8632 46.6602 44.9908C46.6896 44.8934 46.699 44.7936 46.6895 44.692H46.6875C46.5973 44.5419 46.5181 44.3826 46.4492 44.2135C47.2383 44.2184 48.0267 44.2203 48.8145 44.2203C48.028 44.2203 47.2409 44.2184 46.4531 44.2135C46.3499 43.9467 46.2303 43.6879 46.0947 43.4361C46.8138 43.4411 47.5322 43.443 48.25 43.4429C47.5322 43.443 46.8128 43.4401 46.0938 43.4351C45.9746 43.1565 45.8558 42.8774 45.7363 42.5982C45.735 42.5982 45.7337 42.5982 45.7324 42.5982C45.5278 42.3281 45.3688 42.0288 45.2549 41.7008C45.1006 41.4516 44.9613 41.1925 44.8369 40.9234C45.347 40.9284 45.8564 40.9293 46.3652 40.9293C45.8569 40.9293 45.3475 40.9284 44.8379 40.9234C44.5044 40.3552 44.1864 39.7764 43.8828 39.1881C45.7045 39.2079 47.5162 39.1882 49.3174 39.1285ZM54.2041 44.6676C53.3539 44.678 52.503 44.6868 51.6514 44.692H51.6533C52.5043 44.6868 53.3545 44.678 54.2041 44.6676ZM38.9775 44.1597C38.9827 44.1597 38.988 44.1597 38.9932 44.1597C38.988 44.1597 38.9827 44.1597 38.9775 44.1597ZM41.375 40.8629C41.4806 41.0487 41.57 41.2485 41.6436 41.4615C41.7579 41.5828 41.8865 41.6821 42.0293 41.7594C42.0306 41.7593 42.0319 41.7594 42.0332 41.7594C42.4217 42.0037 42.8002 42.2628 43.168 42.5367C40.909 42.5965 38.6396 42.6161 36.3604 42.5963C36.2506 42.3466 36.1503 42.0883 36.0615 41.8209H36.0605C35.981 41.5219 35.9009 41.2224 35.8213 40.9234C37.6827 40.9432 39.534 40.9226 41.375 40.8629ZM51.623 42.5719C50.9366 42.583 50.2494 42.5928 49.5615 42.5982H49.5654C50.252 42.5928 50.9379 42.583 51.623 42.5719ZM36.4785 22.8267C37.3477 22.509 37.9746 22.7782 38.3594 23.6344C38.4434 23.8471 38.5027 24.0668 38.5381 24.2926C38.6279 25.008 38.6487 25.7258 38.5986 26.4459C38.4889 27.604 38.359 28.7606 38.21 29.9156C38.4224 31.3323 38.6418 32.7479 38.8672 34.1627V34.1705C39.0272 35.0275 39.2852 35.8622 39.6416 36.6744C38.3954 36.7192 37.1435 36.7407 35.8857 36.7408C37.1438 36.7408 38.3961 36.7192 39.6426 36.6744C40.0264 37.4484 40.3645 38.2462 40.6572 39.067H40.6602C40.933 39.647 41.1712 40.2456 41.376 40.8619C39.5353 40.9216 37.6844 40.9413 35.8232 40.9215C35.6099 40.3595 35.43 39.7815 35.2852 39.1871H35.2832C34.9797 38.3975 34.7613 37.58 34.627 36.7349C35.0449 36.7399 35.4622 36.7408 35.8789 36.7408C35.4619 36.7408 35.0443 36.7389 34.626 36.734C34.5706 36.5442 34.5206 36.345 34.4766 36.1363C34.4313 35.557 34.3814 34.9782 34.3271 34.401H34.3281C34.1889 32.7871 34.0796 31.1719 34 29.5562C34.4772 27.5838 35.074 25.6494 35.791 23.7535C35.9398 23.3858 36.1696 23.0771 36.4785 22.8267ZM36.6387 39.2008C36.6491 39.2008 36.6595 39.2008 36.6699 39.2008C36.6595 39.2008 36.6491 39.2008 36.6387 39.2008ZM41.8809 33.3248C42.418 32.5029 43.1448 32.274 44.0605 32.6373C45.3426 33.2732 46.3978 34.1804 47.2256 35.359L47.4453 35.6861C47.6563 36.019 47.8418 36.3688 48.002 36.7349H48.0049C48.4426 37.5321 48.8812 38.3294 49.3193 39.1275C47.5182 39.1872 45.7064 39.2079 43.8848 39.1881C43.4127 38.3822 42.9544 37.5643 42.5107 36.7349H42.5078C42.2956 36.3098 42.1168 35.8709 41.9707 35.4185C41.8534 34.7281 41.8232 34.0299 41.8809 33.3248Z" fill="white"/>
<path opacity="0.9" d="M71.3502 61.0815H71.3512V58.4516H71.3492C71.3298 57.747 71.3492 57.053 71.4078 56.3696V56.355C71.3887 56.0242 71.4084 55.7054 71.4674 55.3979V56.1157H71.4703V55.3989C71.4627 54.8923 71.5017 54.3974 71.5875 53.9155V53.9018C71.6005 53.5514 71.64 53.2123 71.7067 52.8852H71.7076C71.6957 52.7065 71.7352 52.5482 71.8268 52.4087C76.6118 52.4535 81.4025 52.4741 86.1988 52.4741C81.4033 52.4741 76.613 52.4526 71.8287 52.4077C71.8118 52.2935 71.8325 52.1938 71.8893 52.1089H91.7145C91.4948 52.2589 91.2555 52.3782 90.9977 52.4673C89.4023 52.4722 87.8076 52.4741 86.2135 52.4741C87.8069 52.4741 89.401 52.4732 90.9957 52.4682C90.7223 52.6548 90.4238 52.7951 90.1002 52.8872H90.0953C89.1059 53.3704 88.0916 53.8091 87.0533 54.2016H71.5895V54.2026H87.0563C86.0208 54.7213 85.0645 55.3593 84.1891 56.1167H84.1861C83.8849 56.458 83.6065 56.8169 83.3512 57.1929H71.4088V57.1948H83.3522C83.0969 57.6071 82.8583 58.0255 82.6363 58.4497H82.6373C82.466 58.9245 82.3066 59.4032 82.1598 59.8852L82.0201 60.4868C81.9704 60.6861 81.9171 60.8842 81.861 61.0815H81.86C81.7137 62.1977 81.574 63.3138 81.442 64.4311C81.1657 64.5466 80.887 64.6562 80.6061 64.7602C77.5045 64.8494 74.3993 64.8794 71.2906 64.8501C71.2708 62.9059 71.2906 60.9712 71.3502 59.0473V61.0815ZM72.1842 51.2114C79.0911 51.3311 86.0181 51.371 92.9654 51.3315C92.7774 51.5157 92.5578 51.6544 92.3082 51.7495H92.3102C92.1318 51.8989 91.9324 52.0182 91.7135 52.1079H71.8873C71.882 51.9499 71.9209 51.8099 72.0055 51.6899H72.0045C72.0332 51.5141 72.0934 51.3543 72.1842 51.2114ZM96.61 47.8022C96.5652 47.9115 96.5058 48.0114 96.4313 48.1011H96.4283C96.2701 48.3391 96.0912 48.5589 95.8912 48.7593H95.8902C95.7513 48.9382 95.5915 49.0977 95.4127 49.2368H95.4156C95.3362 49.3564 95.2362 49.457 95.1168 49.5366C93.2783 49.5415 91.4403 49.5425 89.6031 49.5425C91.441 49.5425 93.2796 49.5415 95.1188 49.5366C95.0191 49.6759 94.8994 49.7951 94.7604 49.895H94.7574C94.6343 50.0778 94.4764 50.218 94.2828 50.313L94.1988 50.4272C94.1081 50.533 93.9969 50.6149 93.8649 50.6723C93.8636 50.6724 93.8622 50.6723 93.861 50.6723C93.7242 50.82 93.5663 50.94 93.3863 51.0307L93.2994 51.1304C93.2069 51.2216 93.0959 51.2879 92.9674 51.3296C86.0202 51.369 79.0929 51.3301 72.1861 51.2104C72.1957 51.1122 72.2359 51.0325 72.3053 50.9721H72.3043C72.3499 50.8214 72.4102 50.6818 72.484 50.5532C77.8138 50.6429 83.155 50.686 88.5074 50.686C83.1557 50.686 77.8149 50.642 72.486 50.5522C72.5009 50.4227 72.5606 50.3228 72.6647 50.2534H72.6637C72.713 50.0753 72.7921 49.9154 72.902 49.7749H72.9039C72.9494 49.6633 73.0099 49.5642 73.0836 49.477C74.8919 49.4918 76.7008 49.5033 78.5104 49.5132C76.7002 49.5033 74.8906 49.4908 73.0817 49.4761C73.1131 49.3727 73.1724 49.293 73.2604 49.2368H73.2584C73.3489 49.0556 73.4686 48.8958 73.6168 48.7583H73.6178C73.76 48.4746 73.959 48.2357 74.2145 48.0415C81.6047 48.1013 89.0051 48.1207 96.4156 48.1011C89.0059 48.1207 81.6059 48.1013 74.2164 48.0415C74.2761 47.9416 74.3562 47.862 74.4557 47.8022H96.61ZM78.2887 49.8491C80.1295 49.8694 81.9716 49.8849 83.8151 49.895H83.817C81.9729 49.8849 80.1302 49.8694 78.2887 49.8491ZM78.6295 49.5141C82.28 49.5339 85.933 49.5424 89.5885 49.5425C85.933 49.5424 82.28 49.5339 78.6295 49.5141ZM76.9049 45.7065C82.063 45.7514 87.227 45.7739 92.3961 45.7739C94.1191 45.7739 95.8428 45.772 97.567 45.7671C97.5216 45.9847 97.4411 46.1835 97.3277 46.3647C97.3264 46.3647 97.3251 46.3647 97.3238 46.3647C97.2516 46.6489 97.134 46.9086 96.9674 47.143H96.9654C96.8914 47.3918 96.7728 47.6111 96.608 47.8013H74.4527C74.6717 47.5423 74.9109 47.303 75.1695 47.0835C80.6112 47.1283 86.0585 47.1489 91.5113 47.1489C86.0589 47.1489 80.6118 47.1283 75.1705 47.0835C75.4529 46.7808 75.7711 46.5211 76.1256 46.3052C81.4185 46.35 86.7172 46.3715 92.0211 46.3716C86.7181 46.3715 81.4205 46.35 76.1285 46.3052C76.3527 46.0629 76.6115 45.8633 76.9049 45.7065ZM95.357 36.6743C97.0189 36.734 98.6914 36.7546 100.374 36.7348C100.237 37.5802 100.018 38.3975 99.7164 39.187H99.7145C99.5694 39.7812 99.3904 40.3595 99.1774 40.9214C98.2494 40.9312 97.3239 40.9312 96.401 40.9214C97.3242 40.9313 98.2501 40.9322 99.1783 40.9223C99.1228 41.1896 99.0423 41.4487 98.9391 41.6997C97.9715 41.7096 97.0063 41.7096 96.0436 41.6997C97.0069 41.7096 97.9728 41.7096 98.941 41.6997C98.8718 41.9164 98.8115 42.1359 98.7613 42.3579H98.7584C98.6791 42.577 98.5994 42.7961 98.5201 43.0151C97.9108 43.0201 97.302 43.022 96.694 43.022C97.3027 43.022 97.912 43.0211 98.5221 43.0161C98.4822 43.1554 98.4429 43.2948 98.4029 43.4341C97.7582 43.439 97.1139 43.4409 96.4703 43.4409C97.1132 43.4409 97.757 43.44 98.401 43.435C98.3097 43.6695 98.2298 43.9088 98.1617 44.1528H98.1598C98.0884 44.327 98.0297 44.5062 97.982 44.6899H97.984C97.9046 44.9094 97.8241 45.1286 97.7447 45.3481H97.7467C97.7013 45.4987 97.641 45.6376 97.567 45.7661C90.67 45.7858 83.7832 45.7663 76.9059 45.7065C77.0713 45.5539 77.2495 45.4138 77.441 45.2886C77.759 45.0694 78.0772 44.8505 78.3951 44.6313L79.1119 44.1528C82.2446 44.2126 85.3868 44.232 88.5397 44.2124C85.3871 44.232 82.2452 44.2126 79.1129 44.1528C79.511 43.8938 79.9091 43.6335 80.3072 43.3745C81.0211 43.3894 81.7356 43.4026 82.4508 43.4126C81.7356 43.4026 81.0211 43.3894 80.3072 43.3745C80.7451 43.0953 81.1829 42.8158 81.6207 42.5366C82.0886 42.2525 82.5462 41.9539 82.9938 41.6401C85.2261 41.6996 87.4679 41.7192 89.7203 41.6997C87.4686 41.7192 85.2273 41.6996 82.9957 41.6401C83.3535 41.3813 83.7112 41.1216 84.069 40.8628H84.068C84.7116 40.3777 85.2492 39.7997 85.6803 39.1284C87.4811 39.1881 89.2927 39.2078 91.1139 39.188C90.8094 39.7778 90.4913 40.3559 90.1588 40.9223H90.1617C90.0364 41.193 89.8971 41.4522 89.7438 41.6997C89.7425 41.6997 89.7412 41.6997 89.7399 41.6997C89.5956 42.0083 89.4383 42.3075 89.2643 42.5962C89.1449 42.8753 89.0262 43.155 88.9069 43.4341C88.1876 43.439 87.4686 43.4419 86.7506 43.4419C87.4684 43.4419 88.1868 43.44 88.9059 43.435C88.7704 43.6867 88.6507 43.9457 88.5475 44.2124H88.5455C88.4764 44.3812 88.3981 44.5402 88.3082 44.6899H88.3102C88.3006 44.7916 88.3102 44.8922 88.3395 44.9897C88.5267 44.8613 88.7156 44.7409 88.9059 44.6304H88.9049C89.1413 44.4516 89.3805 44.2723 89.6217 44.0923H89.6227C89.9611 43.8531 90.2989 43.6137 90.6373 43.3745C92.5708 43.4193 94.5106 43.4409 96.4557 43.4409C94.5113 43.4409 92.5721 43.4193 90.6393 43.3745C90.838 43.235 91.0373 43.095 91.236 42.9555H91.235C91.5532 42.7362 91.8718 42.5167 92.1901 42.2973C92.1913 42.2974 92.1927 42.2973 92.194 42.2973C92.5116 42.0784 92.8295 41.859 93.1471 41.6401L93.2565 41.5591C93.2913 41.5291 93.325 41.4966 93.3561 41.4604C93.4295 41.2474 93.5189 41.0476 93.6246 40.8618C94.0723 40.8763 94.5205 40.8871 94.9694 40.897C94.5202 40.8871 94.0716 40.8753 93.6236 40.8608C93.8117 40.2858 94.0307 39.7275 94.2809 39.186H94.2819C94.606 38.3295 94.9648 37.4922 95.357 36.6743ZM87.7731 35.3589C89.5144 35.4186 91.2673 35.4382 93.0289 35.4184C92.8826 35.8708 92.7028 36.3097 92.4908 36.7348H92.4869C92.0435 37.5637 91.5854 38.3806 91.1139 39.186C89.2927 39.2058 87.4811 39.1861 85.6803 39.1264C86.1185 38.3285 86.5561 37.5309 86.9938 36.7339H86.9977C87.2113 36.2461 87.4694 35.7876 87.7731 35.3589ZM96.6383 23.6313C97.0228 22.7755 97.6499 22.5061 98.5192 22.8237C98.8279 23.0741 99.057 23.3837 99.2057 23.7514C99.9235 25.6504 100.521 27.5846 100.998 29.5542C100.921 31.1508 100.812 32.7463 100.67 34.3403H100.668C100.629 35.1523 100.53 35.9498 100.37 36.7329C98.6877 36.7527 97.0158 36.733 95.3541 36.6733C95.7112 35.8592 95.9704 35.0216 96.1305 34.1606L96.3072 33.0854C96.4798 32.01 96.6404 30.9324 96.7877 29.853C96.6325 28.7195 96.5023 27.5832 96.399 26.4438C96.3124 25.4896 96.3923 24.5517 96.6383 23.6313ZM90.7555 32.6958C91.7514 32.2379 92.5377 32.4668 93.1139 33.3833C93.1712 34.0667 93.1411 34.7449 93.024 35.4175C91.2625 35.4373 89.5104 35.4176 87.7692 35.3579C88.5694 34.2473 89.5647 33.3599 90.7555 32.6958Z" fill="white"/>
<path d="M10.638 89.8094C10.638 88.8216 10.4248 88.0884 9.99847 87.6101C9.58252 87.1318 8.95339 86.8926 8.11109 86.8926H0.499144C0.478346 86.8926 0.467947 86.8614 0.467947 86.799C0.467947 86.7366 0.478346 86.7054 0.499144 86.7054C0.863103 86.7054 1.13347 86.6794 1.31025 86.6274C1.48703 86.5754 1.60662 86.4714 1.66901 86.3154C1.7418 86.1595 1.7782 85.9307 1.7782 85.6291V78.4071C1.7782 78.1056 1.7418 77.882 1.66901 77.7364C1.60662 77.5804 1.48703 77.4764 1.31025 77.4244C1.13347 77.3621 0.863103 77.3309 0.499144 77.3309C0.478346 77.3309 0.467947 77.2997 0.467947 77.2373C0.467947 77.1749 0.478346 77.1437 0.499144 77.1437C0.759114 77.1437 1.05548 77.1541 1.38824 77.1749C1.72101 77.1853 2.06937 77.1905 2.43333 77.1905C2.85968 77.1905 3.24963 77.1853 3.60319 77.1749C3.96715 77.1541 4.28952 77.1437 4.57029 77.1437C4.59108 77.1437 4.60148 77.1749 4.60148 77.2373C4.60148 77.2997 4.59108 77.3309 4.57029 77.3309C4.20633 77.3309 3.92556 77.3621 3.72798 77.4244C3.5408 77.4764 3.41602 77.5804 3.35362 77.7364C3.29123 77.882 3.26003 78.1056 3.26003 78.4071V85.5979C3.26003 85.9203 3.27043 86.1491 3.29123 86.2842C3.32243 86.4194 3.40042 86.5026 3.5252 86.5338C3.66039 86.5546 3.87876 86.565 4.18033 86.565H7.0972C7.42996 86.565 7.66914 86.5494 7.81472 86.5182C7.9603 86.487 8.04349 86.4038 8.06429 86.2686C8.09549 86.1335 8.11109 85.9099 8.11109 85.5979V78.4071C8.11109 78.1056 8.07989 77.882 8.0175 77.7364C7.9655 77.5804 7.84592 77.4764 7.65874 77.4244C7.47156 77.3621 7.18559 77.3309 6.80083 77.3309C6.76964 77.3309 6.75404 77.2997 6.75404 77.2373C6.75404 77.1749 6.76964 77.1437 6.80083 77.1437C7.0816 77.1437 7.39877 77.1541 7.75233 77.1749C8.11629 77.1853 8.50624 77.1905 8.92219 77.1905C9.29655 77.1905 9.65011 77.1853 9.98288 77.1749C10.3156 77.1541 10.612 77.1437 10.872 77.1437C10.8928 77.1437 10.9032 77.1749 10.9032 77.2373C10.9032 77.2997 10.8928 77.3309 10.872 77.3309C10.5184 77.3309 10.248 77.3621 10.0609 77.4244C9.87369 77.4764 9.7489 77.5804 9.68651 77.7364C9.62412 77.882 9.59292 78.1056 9.59292 78.4071V85.6291C9.59292 85.9827 9.60852 86.2375 9.63971 86.3934C9.67091 86.539 9.7645 86.6274 9.92048 86.6586C10.0765 86.6898 10.326 86.7054 10.6692 86.7054C10.7524 86.7054 10.8044 86.7158 10.8252 86.7366C10.846 86.7574 10.8564 86.8094 10.8564 86.8926C10.8564 87.059 10.8512 87.2409 10.8408 87.4385C10.8304 87.6361 10.82 87.9169 10.8096 88.2808C10.8096 88.6448 10.8096 89.1543 10.8096 89.8094C10.8096 89.851 10.7784 89.8718 10.716 89.8718C10.664 89.8718 10.638 89.851 10.638 89.8094ZM13.2803 85.0052L13.4363 77.5024L13.8575 77.5336L13.6859 85.0052C13.6755 85.5563 13.7795 85.9775 13.9978 86.2686C14.2266 86.5598 14.5646 86.7054 15.0117 86.7054C15.0429 86.7054 15.0585 86.7366 15.0585 86.799C15.0585 86.8614 15.0429 86.8926 15.0117 86.8926C14.7829 86.8926 14.549 86.8874 14.3098 86.877C14.0706 86.8666 13.8003 86.8614 13.4987 86.8614C13.1867 86.8614 12.9008 86.8666 12.6408 86.877C12.3912 86.8874 12.152 86.8926 11.9233 86.8926C11.8921 86.8926 11.8765 86.8614 11.8765 86.799C11.8765 86.7366 11.8921 86.7054 11.9233 86.7054C12.3496 86.7054 12.6772 86.5598 12.906 86.2686C13.1451 85.9775 13.2699 85.5563 13.2803 85.0052ZM24.3239 86.7054C24.3447 86.7054 24.3551 86.7366 24.3551 86.799C24.3551 86.8614 24.3447 86.8926 24.3239 86.8926C24.0535 86.8926 23.7519 86.8874 23.4192 86.877C23.0864 86.8666 22.7381 86.8614 22.3741 86.8614C22.0101 86.8614 21.667 86.8666 21.3446 86.877C21.0326 86.8874 20.7467 86.8926 20.4867 86.8926C20.4659 86.8926 20.4555 86.8614 20.4555 86.799C20.4555 86.7366 20.4659 86.7054 20.4867 86.7054C20.9859 86.7054 21.3082 86.6378 21.4538 86.5026C21.5994 86.3674 21.6566 86.0763 21.6254 85.6291L21.2978 78.5007L21.9841 77.4244L17.991 86.7834C17.9806 86.825 17.939 86.8458 17.8662 86.8458C17.7934 86.8458 17.7466 86.825 17.7258 86.7834L13.4987 78.4383C13.1243 77.7 12.6356 77.3309 12.0325 77.3309C12.0013 77.3309 11.9857 77.2997 11.9857 77.2373C11.9857 77.1749 12.0013 77.1437 12.0325 77.1437C12.23 77.1437 12.438 77.1489 12.6564 77.1593C12.8852 77.1697 13.0775 77.1749 13.2335 77.1749C13.4623 77.1749 13.6651 77.1697 13.8419 77.1593C14.029 77.1489 14.1746 77.1437 14.2786 77.1437C14.4242 77.1437 14.5334 77.1957 14.6062 77.2997C14.6894 77.3932 14.8193 77.6116 14.9961 77.9548L18.5057 84.8336L17.835 86.0191L21.5318 77.5336C21.5942 77.3984 21.6618 77.2997 21.7346 77.2373C21.8074 77.1749 21.8957 77.1437 21.9997 77.1437C22.0933 77.1437 22.1921 77.1489 22.2961 77.1593C22.4105 77.1697 22.5457 77.1749 22.7017 77.1749C23.0136 77.1749 23.2788 77.1697 23.4972 77.1593C23.7155 77.1489 23.9287 77.1437 24.1367 77.1437C24.1679 77.1437 24.1835 77.1749 24.1835 77.2373C24.1835 77.2997 24.1679 77.3309 24.1367 77.3309C23.6583 77.3309 23.3048 77.4192 23.076 77.596C22.8472 77.7728 22.7433 78.0744 22.764 78.5007L23.1072 85.6291C23.128 85.9307 23.1644 86.1595 23.2164 86.3154C23.2788 86.4714 23.3932 86.5754 23.5596 86.6274C23.7363 86.6794 23.9911 86.7054 24.3239 86.7054ZM35.8293 86.7054C35.8605 86.7054 35.8761 86.7366 35.8761 86.799C35.8761 86.8614 35.8605 86.8926 35.8293 86.8926C35.5693 86.8926 35.2729 86.8874 34.9402 86.877C34.6074 86.8666 34.2591 86.8614 33.8951 86.8614C33.4895 86.8614 33.1152 86.8666 32.772 86.877C32.4289 86.8874 32.1169 86.8926 31.8361 86.8926C31.8049 86.8926 31.7893 86.8614 31.7893 86.799C31.7893 86.7366 31.8049 86.7054 31.8361 86.7054C32.1897 86.7054 32.4549 86.6794 32.6316 86.6274C32.8188 86.5754 32.9384 86.4714 32.9904 86.3154C33.0528 86.1595 33.084 85.9307 33.084 85.6291V78.5475C33.084 78.2252 33.0684 77.9964 33.0372 77.8612C33.006 77.726 32.928 77.648 32.8032 77.6272C32.6784 77.596 32.4601 77.5804 32.1481 77.5804H28.9505C28.6281 77.5804 28.3941 77.596 28.2485 77.6272C28.1134 77.6584 28.0302 77.7416 27.999 77.8768C27.9678 78.012 27.9522 78.2356 27.9522 78.5475V85.6291C27.9522 85.9307 27.9782 86.1595 28.0302 86.3154C28.0926 86.4714 28.2121 86.5754 28.3889 86.6274C28.5761 86.6794 28.8465 86.7054 29.2 86.7054C29.2312 86.7054 29.2468 86.7366 29.2468 86.799C29.2468 86.8614 29.2312 86.8926 29.2 86.8926C28.9193 86.8926 28.6073 86.8874 28.2641 86.877C27.921 86.8666 27.5414 86.8614 27.1255 86.8614C26.7615 86.8614 26.4131 86.8666 26.0804 86.877C25.7476 86.8874 25.4513 86.8926 25.1913 86.8926C25.1705 86.8926 25.1601 86.8614 25.1601 86.799C25.1601 86.7366 25.1705 86.7054 25.1913 86.7054C25.5552 86.7054 25.8256 86.6794 26.0024 86.6274C26.1792 86.5754 26.2988 86.4714 26.3612 86.3154C26.4339 86.1595 26.4703 85.9307 26.4703 85.6291V78.5943C26.4703 78.1472 26.3923 77.8248 26.2364 77.6272C26.0908 77.4296 25.7476 77.3309 25.2069 77.3309C25.1861 77.3309 25.1757 77.2997 25.1757 77.2373C25.1757 77.1749 25.1861 77.1437 25.2069 77.1437C25.3941 77.1437 25.7528 77.1489 26.2832 77.1593C26.8239 77.1697 27.4686 77.1801 28.2173 77.1905C28.9765 77.1905 29.7616 77.1905 30.5727 77.1905C31.2278 77.1905 31.8517 77.1905 32.4445 77.1905C33.0476 77.1801 33.5935 77.1749 34.0823 77.1749C34.571 77.1645 34.9662 77.1593 35.2677 77.1593C35.5797 77.1489 35.7669 77.1437 35.8293 77.1437C35.8605 77.1437 35.8761 77.1749 35.8761 77.2373C35.8761 77.2997 35.8605 77.3309 35.8293 77.3309C35.2989 77.3309 34.9558 77.4296 34.7998 77.6272C34.6438 77.8248 34.5658 78.1472 34.5658 78.5943V85.6291C34.5658 85.9307 34.597 86.1595 34.6594 86.3154C34.7218 86.4714 34.8414 86.5754 35.0182 86.6274C35.2054 86.6794 35.4757 86.7054 35.8293 86.7054ZM47.4975 86.7054C47.5287 86.7054 47.5443 86.7366 47.5443 86.799C47.5443 86.8614 47.5287 86.8926 47.4975 86.8926C47.2375 86.8926 46.9412 86.8874 46.6084 86.877C46.2756 86.8666 45.9273 86.8614 45.5633 86.8614C45.1578 86.8614 44.7834 86.8666 44.4402 86.877C44.0971 86.8874 43.7851 86.8926 43.5044 86.8926C43.4732 86.8926 43.4576 86.8614 43.4576 86.799C43.4576 86.7366 43.4732 86.7054 43.5044 86.7054C43.8579 86.7054 44.1231 86.6794 44.2999 86.6274C44.487 86.5754 44.6066 86.4714 44.6586 86.3154C44.721 86.1595 44.7522 85.9307 44.7522 85.6291V78.5475C44.7522 78.2252 44.7366 77.9964 44.7054 77.8612C44.6742 77.726 44.5962 77.648 44.4714 77.6272C44.3467 77.596 44.1283 77.5804 43.8163 77.5804H40.6187C40.2963 77.5804 40.0623 77.596 39.9168 77.6272C39.7816 77.6584 39.6984 77.7416 39.6672 77.8768C39.636 78.012 39.6204 78.2356 39.6204 78.5475V85.6291C39.6204 85.9307 39.6464 86.1595 39.6984 86.3154C39.7608 86.4714 39.8804 86.5754 40.0571 86.6274C40.2443 86.6794 40.5147 86.7054 40.8682 86.7054C40.8994 86.7054 40.915 86.7366 40.915 86.799C40.915 86.8614 40.8994 86.8926 40.8682 86.8926C40.5875 86.8926 40.2755 86.8874 39.9324 86.877C39.5892 86.8666 39.2096 86.8614 38.7937 86.8614C38.4297 86.8614 38.0814 86.8666 37.7486 86.877C37.4158 86.8874 37.1195 86.8926 36.8595 86.8926C36.8387 86.8926 36.8283 86.8614 36.8283 86.799C36.8283 86.7366 36.8387 86.7054 36.8595 86.7054C37.2235 86.7054 37.4938 86.6794 37.6706 86.6274C37.8474 86.5754 37.967 86.4714 38.0294 86.3154C38.1022 86.1595 38.1386 85.9307 38.1386 85.6291V78.5943C38.1386 78.1472 38.0606 77.8248 37.9046 77.6272C37.759 77.4296 37.4158 77.3309 36.8751 77.3309C36.8543 77.3309 36.8439 77.2997 36.8439 77.2373C36.8439 77.1749 36.8543 77.1437 36.8751 77.1437C37.0623 77.1437 37.421 77.1489 37.9514 77.1593C38.4921 77.1697 39.1368 77.1801 39.8856 77.1905C40.6447 77.1905 41.4298 77.1905 42.2409 77.1905C42.896 77.1905 43.5199 77.1905 44.1127 77.1905C44.7158 77.1801 45.2618 77.1749 45.7505 77.1749C46.2392 77.1645 46.6344 77.1593 46.936 77.1593C47.2479 77.1489 47.4351 77.1437 47.4975 77.1437C47.5287 77.1437 47.5443 77.1749 47.5443 77.2373C47.5443 77.2997 47.5287 77.3309 47.4975 77.3309C46.9672 77.3309 46.624 77.4296 46.468 77.6272C46.312 77.8248 46.234 78.1472 46.234 78.5943V85.6291C46.234 85.9307 46.2652 86.1595 46.3276 86.3154C46.39 86.4714 46.5096 86.5754 46.6864 86.6274C46.8736 86.6794 47.1439 86.7054 47.4975 86.7054ZM55.4124 86.2686L52.5423 83.9445C52.5007 83.8925 52.4799 83.8301 52.4799 83.7573C52.4799 83.6845 52.5007 83.6273 52.5423 83.5858L55.4124 81.2616C55.4332 81.2304 55.4592 81.2304 55.4904 81.2616C55.532 81.2928 55.5424 81.3188 55.5216 81.3396L53.9306 83.7573L55.5216 86.1751C55.532 86.1959 55.5216 86.2271 55.4904 86.2686C55.4592 86.2998 55.4332 86.2998 55.4124 86.2686ZM57.9861 86.2686L55.1004 83.9445C55.0588 83.8925 55.038 83.8301 55.038 83.7573C55.038 83.6845 55.0588 83.6273 55.1004 83.5858L57.9861 81.2616C58.0069 81.2304 58.0329 81.2304 58.0641 81.2616C58.1057 81.2928 58.1161 81.3188 58.0953 81.3396L56.4887 83.7573L58.0797 86.1751C58.1005 86.1959 58.0953 86.2271 58.0641 86.2686C58.0329 86.2998 58.0069 86.2998 57.9861 86.2686ZM62.9116 86.8302C63.3484 86.8302 63.6967 86.7158 63.9567 86.487C64.2271 86.2479 64.4246 85.9411 64.5494 85.5667C64.6742 85.1924 64.7366 84.7972 64.7366 84.3813C64.7366 83.5286 64.5026 82.889 64.0347 82.4627C63.5771 82.0363 62.9376 81.8231 62.1161 81.8231C62.0745 81.8231 62.0537 81.792 62.0537 81.7296C62.0537 81.6672 62.0745 81.636 62.1161 81.636C62.9064 81.636 63.4887 81.4332 63.8631 81.0276C64.2375 80.6221 64.4246 80.0761 64.4246 79.3898C64.4246 78.6827 64.2843 78.1368 64.0035 77.752C63.7227 77.3673 63.3276 77.1749 62.818 77.1749C62.4749 77.1749 62.1317 77.2841 61.7885 77.5024C61.4558 77.7208 61.1542 78.0276 60.8838 78.4227C60.6239 78.8179 60.4263 79.2858 60.2911 79.8266C60.2807 79.8578 60.2495 79.8682 60.1975 79.8578C60.1455 79.8474 60.1195 79.8318 60.1195 79.811L60.3379 77.752C60.3587 77.6272 60.3795 77.544 60.4003 77.5024C60.4211 77.4608 60.4783 77.4244 60.5719 77.3932C60.9982 77.2477 61.4194 77.1437 61.8353 77.0813C62.2513 77.0085 62.6412 76.9721 63.0052 76.9721C63.6915 76.9721 64.2531 77.0709 64.6898 77.2685C65.137 77.466 65.4645 77.726 65.6725 78.0484C65.8909 78.3603 66.0001 78.7035 66.0001 79.0779C66.0001 79.4418 65.9065 79.785 65.7193 80.1073C65.5321 80.4193 65.2877 80.6949 64.9862 80.934C64.695 81.1732 64.3778 81.3656 64.0347 81.5112C63.7019 81.6568 63.3848 81.74 63.0832 81.7608L63.3016 81.636C63.9047 81.636 64.4402 81.74 64.9082 81.9479C65.3761 82.1455 65.7453 82.4315 66.0157 82.8058C66.286 83.1698 66.4212 83.6065 66.4212 84.1161C66.4212 84.688 66.2444 85.1976 65.8909 85.6447C65.5477 86.0919 65.085 86.4454 64.5026 86.7054C63.9203 86.955 63.2756 87.0798 62.5684 87.0798C62.1317 87.0798 61.7001 87.0278 61.2738 86.9238C60.8474 86.8302 60.5147 86.6846 60.2755 86.487C60.1819 86.435 60.1247 86.3882 60.1039 86.3466C60.0831 86.305 60.0675 86.2323 60.0571 86.1283L59.87 84.1473C59.87 84.1265 59.8959 84.1109 59.9479 84.1005C60.0103 84.0901 60.0467 84.1005 60.0571 84.1317C60.1507 84.6932 60.3431 85.1768 60.6343 85.5823C60.9254 85.9775 61.2686 86.2842 61.6637 86.5026C62.0693 86.721 62.4853 86.8302 62.9116 86.8302ZM68.1417 86.877L70.809 80.6377C70.8297 80.5961 70.8609 80.5753 70.9025 80.5753C70.9545 80.5753 70.9857 80.5961 70.9961 80.6377L73.7414 86.877H72.2752L70.3254 82.3535L70.8869 81.402L68.5628 86.877H68.1417ZM67.4709 88.9671C67.4709 88.4992 67.4605 88.1352 67.4397 87.8753C67.4189 87.6257 67.3929 87.4177 67.3617 87.2513C67.3409 87.085 67.3305 86.903 67.3305 86.7054C67.3305 86.6222 67.3409 86.565 67.3617 86.5338C67.3825 86.5026 67.4293 86.487 67.5021 86.487H74.3342C74.4173 86.487 74.4693 86.5026 74.4901 86.5338C74.5109 86.565 74.5213 86.6222 74.5213 86.7054C74.5213 86.8718 74.5057 87.0486 74.4745 87.2357C74.4537 87.4333 74.4277 87.6673 74.3965 87.9377C74.3757 88.208 74.3654 88.5512 74.3654 88.9671C74.3654 89.0087 74.3342 89.0295 74.2718 89.0295C74.2198 89.0295 74.1938 89.0087 74.1938 88.9671C74.1938 88.52 74.1158 88.1404 73.9598 87.8285C73.8142 87.5165 73.5958 87.2773 73.3047 87.111C73.0239 86.955 72.6807 86.877 72.2752 86.877H69.4987C69.1139 86.877 68.7812 86.955 68.5004 87.111C68.2196 87.2773 68.0065 87.5165 67.8609 87.8285C67.7257 88.1404 67.6581 88.52 67.6581 88.9671C67.6581 89.0087 67.6269 89.0295 67.5645 89.0295C67.5021 89.0295 67.4709 89.0087 67.4709 88.9671ZM74.8903 91.1821C74.8591 91.1821 74.8435 91.1509 74.8435 91.0885C74.8435 91.0261 74.8591 90.9949 74.8903 90.9949C75.2959 90.9949 75.5559 90.9273 75.6702 90.7921C75.795 90.657 75.8574 90.3658 75.8574 89.9186V82.1351C75.8574 81.688 75.7742 81.3968 75.6078 81.2616C75.4415 81.1264 75.1503 81.0588 74.7343 81.0588C74.7135 81.0588 74.7031 81.0276 74.7031 80.9652C74.7031 80.9029 74.7135 80.8717 74.7343 80.8717C74.9215 80.8717 75.1399 80.8717 75.3895 80.8717C75.6494 80.8717 75.899 80.8717 76.1382 80.8717C76.3878 80.8717 76.6009 80.8717 76.7777 80.8717C76.9233 80.8717 77.0117 80.9029 77.0429 80.9652C77.0845 81.0172 77.1053 81.1108 77.1053 81.246V89.9186C77.1053 90.2098 77.1417 90.4334 77.2145 90.5894C77.2873 90.7453 77.4276 90.8493 77.6356 90.9013C77.8436 90.9637 78.1504 90.9949 78.5559 90.9949C78.5871 90.9949 78.6027 91.0261 78.6027 91.0885C78.6027 91.1509 78.5871 91.1821 78.5559 91.1821C78.2751 91.1821 77.9528 91.1769 77.5888 91.1665C77.2353 91.1561 76.8609 91.1509 76.4657 91.1509C76.1746 91.1509 75.8886 91.1561 75.6078 91.1665C75.3375 91.1769 75.0983 91.1821 74.8903 91.1821ZM78.5559 87.0954C78.1504 87.0954 77.802 87.059 77.5108 86.9862C77.2197 86.9134 76.8817 86.7886 76.4969 86.6118L76.9337 85.6603C77.1833 85.9723 77.4536 86.2271 77.7448 86.4246C78.036 86.6222 78.4259 86.721 78.9147 86.721C79.4242 86.721 79.8298 86.5026 80.1313 86.0659C80.4433 85.6187 80.5993 84.9376 80.5993 84.0225C80.5993 83.1698 80.4017 82.5303 80.0066 82.1039C79.6218 81.6672 79.159 81.4488 78.6183 81.4488C78.2128 81.4488 77.8592 81.558 77.5576 81.7764C77.2561 81.9947 76.9597 82.2599 76.6685 82.5719L76.5125 82.4159C77.0429 81.8024 77.5472 81.3604 78.0256 81.09C78.5143 80.8093 79.0135 80.6689 79.523 80.6689C79.9598 80.6689 80.3601 80.7833 80.7241 81.012C81.0984 81.2304 81.4 81.5528 81.6288 81.9791C81.8575 82.4055 81.9719 82.9254 81.9719 83.539C81.9719 84.1941 81.8627 84.7504 81.6444 85.208C81.4364 85.6551 81.1608 86.0191 80.8177 86.2998C80.4745 86.5806 80.1053 86.7834 79.7102 86.9082C79.315 87.033 78.9303 87.0954 78.5559 87.0954ZM87.4447 86.9862C87.4031 87.007 87.3563 87.0174 87.3043 87.0174C87.138 87.0174 86.9716 86.8978 86.8052 86.6586C86.6388 86.4194 86.5556 86.0711 86.5556 85.6135V82.8682C86.5556 82.2131 86.488 81.74 86.3528 81.4488C86.2281 81.1576 86.0253 81.012 85.7445 81.012C85.4845 81.012 85.2818 81.09 85.1362 81.246C85.001 81.3916 84.9022 81.5632 84.8398 81.7608C84.7774 81.9479 84.741 82.1091 84.7306 82.2443C84.6994 82.5043 84.6162 82.7019 84.4811 82.837C84.3563 82.9722 84.1743 83.0398 83.9351 83.0398C83.6959 83.0398 83.5244 82.9878 83.4204 82.8838C83.3164 82.7694 83.2644 82.6395 83.2644 82.4939C83.2644 82.2651 83.3684 82.0467 83.5764 81.8387C83.7947 81.6204 84.0651 81.428 84.3875 81.2616C84.7202 81.0952 85.0634 80.9652 85.4169 80.8717C85.7705 80.7677 86.0825 80.7157 86.3528 80.7157C86.7792 80.7157 87.1276 80.8509 87.3979 81.1212C87.6787 81.3916 87.8191 81.8179 87.8191 82.4003V85.208C87.8191 85.5303 87.8711 85.7747 87.9751 85.9411C88.079 86.1075 88.2298 86.1907 88.4274 86.1907C88.5938 86.1907 88.781 86.1439 88.9889 86.0503C89.0409 86.0295 89.0773 86.0503 89.0981 86.1127C89.1189 86.1647 89.1033 86.2011 89.0513 86.2219L87.4447 86.9862ZM84.5122 87.0018C84.0755 87.0018 83.7479 86.8978 83.5296 86.6898C83.3216 86.4818 83.2176 86.2167 83.2176 85.8943C83.2176 85.6031 83.2956 85.3691 83.4516 85.1924C83.6076 85.0052 83.8259 84.8544 84.1067 84.74C84.3875 84.6152 84.6994 84.4904 85.0426 84.3657L86.7116 83.7417L86.7584 83.9757L85.6197 84.4593C85.4949 84.5008 85.3598 84.5632 85.2142 84.6464C85.0686 84.7192 84.9438 84.818 84.8398 84.9428C84.7462 85.0676 84.6994 85.234 84.6994 85.4419C84.6994 85.6915 84.7826 85.8943 84.949 86.0503C85.1154 86.1959 85.3026 86.2686 85.5105 86.2686C85.6041 86.2686 85.6977 86.2582 85.7913 86.2375C85.8849 86.2063 85.9941 86.1491 86.1189 86.0659L86.9612 85.5043L86.9768 85.7383L85.8693 86.5182C85.6301 86.6846 85.4065 86.8094 85.1986 86.8926C85.001 86.9654 84.7722 87.0018 84.5122 87.0018ZM91.1091 80.8873C91.3587 80.8873 91.6342 80.8821 91.9358 80.8717C92.2374 80.8509 92.5285 80.8405 92.8093 80.8405C93.4852 80.8405 94 80.9392 94.3535 81.1368C94.7175 81.3344 94.8995 81.6308 94.8995 82.0259C94.8995 82.5979 94.4159 83.1594 93.4488 83.7105L93.2616 83.6013C93.3448 83.4558 93.4072 83.2894 93.4488 83.1022C93.5008 82.915 93.5268 82.6967 93.5268 82.4471C93.5268 81.9687 93.4332 81.6308 93.246 81.4332C93.0693 81.2252 92.7937 81.1212 92.4193 81.1212C92.1386 81.1212 91.9462 81.1836 91.8422 81.3084C91.7486 81.4332 91.7018 81.7192 91.7018 82.1663V85.6291C91.7018 85.9619 91.7694 86.2115 91.9046 86.3778C92.0502 86.5442 92.3361 86.6274 92.7625 86.6274C93.2408 86.6274 93.5892 86.5182 93.8076 86.2998C94.0364 86.0815 94.1507 85.7591 94.1507 85.3328C94.1507 84.896 94.0312 84.5372 93.792 84.2565C93.5528 83.9653 93.1525 83.8197 92.5909 83.8197H91.1715L91.1559 83.539H93.1369C94.7487 83.539 95.5546 84.0225 95.5546 84.9896C95.5546 85.5511 95.3206 86.0139 94.8527 86.3778C94.3847 86.7418 93.7764 86.9238 93.0277 86.9238C92.7989 86.9238 92.4921 86.9134 92.1074 86.8926C91.733 86.8718 91.4003 86.8614 91.1091 86.8614C90.8283 86.8614 90.5527 86.8666 90.2824 86.877C90.012 86.8874 89.7676 86.8926 89.5493 86.8926C89.5181 86.8926 89.5025 86.8614 89.5025 86.799C89.5025 86.7366 89.5181 86.7054 89.5493 86.7054C89.934 86.7054 90.1784 86.6378 90.2824 86.5026C90.3968 86.3674 90.454 86.0763 90.454 85.6291V82.1351C90.454 81.6776 90.3968 81.3864 90.2824 81.2616C90.1784 81.1264 89.9392 81.0588 89.5649 81.0588C89.5337 81.0588 89.5181 81.0276 89.5181 80.9652C89.5181 80.9029 89.5337 80.8717 89.5649 80.8717C89.7728 80.8717 90.012 80.8769 90.2824 80.8873C90.5527 80.8873 90.8283 80.8873 91.1091 80.8873ZM98.0693 84.0537V83.7105H102.265V84.0537H98.0693ZM97.461 85.6291V82.1351C97.461 81.6776 97.4038 81.3864 97.2894 81.2616C97.1854 81.1264 96.9462 81.0588 96.5719 81.0588C96.5407 81.0588 96.5251 81.0276 96.5251 80.9652C96.5251 80.9029 96.5407 80.8717 96.5719 80.8717C96.7799 80.8717 97.0138 80.8769 97.2738 80.8873C97.5442 80.8977 97.8249 80.9029 98.1161 80.9029C98.3865 80.9029 98.6517 80.8977 98.9116 80.8873C99.1716 80.8769 99.4056 80.8717 99.6135 80.8717C99.6343 80.8717 99.6447 80.9029 99.6447 80.9652C99.6447 81.0276 99.6343 81.0588 99.6135 81.0588C99.2288 81.0588 98.9792 81.1316 98.8648 81.2772C98.7608 81.4228 98.7088 81.7192 98.7088 82.1663V85.6291C98.7088 86.0763 98.7608 86.3674 98.8648 86.5026C98.9792 86.6378 99.2288 86.7054 99.6135 86.7054C99.6343 86.7054 99.6447 86.7366 99.6447 86.799C99.6447 86.8614 99.6343 86.8926 99.6135 86.8926C99.3952 86.8926 99.156 86.8874 98.896 86.877C98.6465 86.8666 98.3865 86.8614 98.1161 86.8614C97.8249 86.8614 97.5442 86.8666 97.2738 86.877C97.0138 86.8874 96.7747 86.8926 96.5563 86.8926C96.5251 86.8926 96.5095 86.8614 96.5095 86.799C96.5095 86.7366 96.5251 86.7054 96.5563 86.7054C96.941 86.7054 97.1854 86.6378 97.2894 86.5026C97.4038 86.3674 97.461 86.0763 97.461 85.6291ZM101.657 85.6291V82.1351C101.657 81.6776 101.6 81.3864 101.485 81.2616C101.381 81.1264 101.142 81.0588 100.768 81.0588C100.737 81.0588 100.721 81.0276 100.721 80.9652C100.721 80.9029 100.737 80.8717 100.768 80.8717C100.976 80.8717 101.21 80.8769 101.47 80.8873C101.74 80.8977 102.021 80.9029 102.312 80.9029C102.582 80.9029 102.848 80.8977 103.108 80.8873C103.368 80.8769 103.601 80.8717 103.809 80.8717C103.83 80.8717 103.841 80.9029 103.841 80.9652C103.841 81.0276 103.83 81.0588 103.809 81.0588C103.425 81.0588 103.175 81.1316 103.061 81.2772C102.957 81.4228 102.905 81.7192 102.905 82.1663V85.6291C102.905 86.0763 102.957 86.3674 103.061 86.5026C103.175 86.6378 103.425 86.7054 103.809 86.7054C103.83 86.7054 103.841 86.7366 103.841 86.799C103.841 86.8614 103.83 86.8926 103.809 86.8926C103.591 86.8926 103.352 86.8874 103.092 86.877C102.842 86.8666 102.582 86.8614 102.312 86.8614C102.021 86.8614 101.74 86.8666 101.47 86.877C101.199 86.8874 100.96 86.8926 100.752 86.8926C100.721 86.8926 100.705 86.8614 100.705 86.799C100.705 86.7366 100.721 86.7054 100.752 86.7054C101.137 86.7054 101.381 86.6378 101.485 86.5026C101.6 86.3674 101.657 86.0763 101.657 85.6291ZM105.764 87.033C105.712 87.033 105.66 87.0226 105.608 87.0018C105.567 86.9914 105.546 86.9758 105.546 86.955V82.1351C105.546 81.6776 105.494 81.3864 105.39 81.2616C105.286 81.1264 105.042 81.0588 104.657 81.0588C104.636 81.0588 104.626 81.0276 104.626 80.9652C104.626 80.9029 104.636 80.8717 104.657 80.8717C104.865 80.8717 105.078 80.8769 105.296 80.8873C105.515 80.8977 105.801 80.9029 106.154 80.9029C106.57 80.9029 106.893 80.8977 107.121 80.8873C107.36 80.8769 107.558 80.8717 107.714 80.8717C107.745 80.8717 107.761 80.9029 107.761 80.9652C107.761 81.0276 107.745 81.0588 107.714 81.0588C107.329 81.0588 107.08 81.1264 106.965 81.2616C106.851 81.3864 106.794 81.6776 106.794 82.1351V85.7539L106.263 86.0815L110.678 80.8093C110.719 80.7573 110.776 80.7313 110.849 80.7313C110.984 80.7313 111.052 80.7573 111.052 80.8093V85.6291C111.052 86.0763 111.104 86.3674 111.208 86.5026C111.322 86.6378 111.572 86.7054 111.957 86.7054C111.978 86.7054 111.988 86.7366 111.988 86.799C111.988 86.8614 111.978 86.8926 111.957 86.8926C111.738 86.8926 111.499 86.8874 111.239 86.877C110.99 86.8666 110.724 86.8614 110.444 86.8614C110.163 86.8614 109.882 86.8666 109.601 86.877C109.331 86.8874 109.092 86.8926 108.884 86.8926C108.863 86.8926 108.853 86.8614 108.853 86.799C108.853 86.7366 108.868 86.7054 108.899 86.7054C109.274 86.7054 109.518 86.6378 109.633 86.5026C109.747 86.3674 109.804 86.0763 109.804 85.6291V81.9323L110.397 81.6204L105.92 86.9706C105.91 86.9914 105.889 87.007 105.858 87.0174C105.837 87.0278 105.806 87.033 105.764 87.033ZM117.863 86.8926H112.81C112.778 86.8926 112.763 86.8614 112.763 86.799C112.763 86.7366 112.778 86.7054 112.81 86.7054C113.184 86.7054 113.423 86.6326 113.527 86.487C113.631 86.3414 113.683 86.0451 113.683 85.5979V82.1351C113.683 81.6776 113.631 81.3864 113.527 81.2616C113.423 81.1264 113.184 81.0588 112.81 81.0588C112.778 81.0588 112.763 81.0276 112.763 80.9652C112.763 80.9029 112.778 80.8717 112.81 80.8717C113.018 80.8717 113.251 80.8769 113.511 80.8873C113.771 80.8977 114.037 80.9029 114.307 80.9029C114.567 80.9029 114.822 80.8977 115.071 80.8873C115.321 80.8769 115.539 80.8717 115.726 80.8717C115.758 80.8717 115.773 80.9029 115.773 80.9652C115.773 81.0276 115.758 81.0588 115.726 81.0588C115.404 81.0588 115.191 81.1264 115.087 81.2616C114.993 81.3864 114.946 81.6776 114.946 82.1351V85.6291C114.946 85.9203 114.952 86.1283 114.962 86.2531C114.983 86.3778 115.03 86.4558 115.102 86.487C115.186 86.5182 115.321 86.5338 115.508 86.5338H117.255C117.453 86.5338 117.588 86.5182 117.661 86.487C117.744 86.4558 117.791 86.3778 117.801 86.2531C117.822 86.1179 117.832 85.8995 117.832 85.5979V82.1351C117.832 81.6776 117.785 81.3864 117.692 81.2616C117.609 81.1264 117.406 81.0588 117.083 81.0588C117.052 81.0588 117.037 81.0276 117.037 80.9652C117.037 80.9029 117.052 80.8717 117.083 80.8717C117.271 80.8717 117.484 80.8769 117.723 80.8873C117.962 80.8977 118.201 80.9029 118.44 80.9029C118.732 80.9029 119.007 80.8977 119.267 80.8873C119.527 80.8769 119.772 80.8717 120 80.8717C120.032 80.8717 120.047 80.9029 120.047 80.9652C120.047 81.0276 120.032 81.0588 120 81.0588C119.616 81.0588 119.366 81.1264 119.252 81.2616C119.137 81.3864 119.08 81.6776 119.08 82.1351V85.6291C119.08 85.9099 119.106 86.1179 119.158 86.2531C119.21 86.3778 119.298 86.461 119.423 86.5026C119.548 86.5338 119.735 86.5494 119.985 86.5494C120.078 86.5494 120.13 86.5598 120.141 86.5806C120.162 86.591 120.172 86.6378 120.172 86.721C120.172 86.8666 120.156 87.0278 120.125 87.2045C120.104 87.3813 120.084 87.6153 120.063 87.9065C120.052 88.1976 120.047 88.572 120.047 89.0295C120.047 89.0711 120.016 89.0919 119.954 89.0919C119.891 89.0919 119.86 89.0711 119.86 89.0295C119.86 88.5096 119.787 88.0936 119.642 87.7817C119.506 87.4697 119.293 87.2409 119.002 87.0954C118.711 86.9602 118.331 86.8926 117.863 86.8926ZM125.42 86.9862C125.378 87.007 125.331 87.0174 125.279 87.0174C125.113 87.0174 124.947 86.8978 124.78 86.6586C124.614 86.4194 124.531 86.0711 124.531 85.6135V82.8682C124.531 82.2131 124.463 81.74 124.328 81.4488C124.203 81.1576 124 81.012 123.72 81.012C123.46 81.012 123.257 81.09 123.111 81.246C122.976 81.3916 122.877 81.5632 122.815 81.7608C122.752 81.9479 122.716 82.1091 122.706 82.2443C122.674 82.5043 122.591 82.7019 122.456 82.837C122.331 82.9722 122.149 83.0398 121.91 83.0398C121.671 83.0398 121.499 82.9878 121.395 82.8838C121.291 82.7694 121.239 82.6395 121.239 82.4939C121.239 82.2651 121.343 82.0467 121.551 81.8387C121.77 81.6204 122.04 81.428 122.362 81.2616C122.695 81.0952 123.038 80.9652 123.392 80.8717C123.746 80.7677 124.057 80.7157 124.328 80.7157C124.754 80.7157 125.103 80.8509 125.373 81.1212C125.654 81.3916 125.794 81.8179 125.794 82.4003V85.208C125.794 85.5303 125.846 85.7747 125.95 85.9411C126.054 86.1075 126.205 86.1907 126.402 86.1907C126.569 86.1907 126.756 86.1439 126.964 86.0503C127.016 86.0295 127.052 86.0503 127.073 86.1127C127.094 86.1647 127.078 86.2011 127.026 86.2219L125.42 86.9862ZM122.487 87.0018C122.051 87.0018 121.723 86.8978 121.505 86.6898C121.297 86.4818 121.193 86.2167 121.193 85.8943C121.193 85.6031 121.271 85.3691 121.427 85.1924C121.583 85.0052 121.801 84.8544 122.082 84.74C122.362 84.6152 122.674 84.4904 123.018 84.3657L124.687 83.7417L124.733 83.9757L123.595 84.4593C123.47 84.5008 123.335 84.5632 123.189 84.6464C123.044 84.7192 122.919 84.818 122.815 84.9428C122.721 85.0676 122.674 85.234 122.674 85.4419C122.674 85.6915 122.758 85.8943 122.924 86.0503C123.09 86.1959 123.278 86.2686 123.486 86.2686C123.579 86.2686 123.673 86.2582 123.766 86.2375C123.86 86.2063 123.969 86.1491 124.094 86.0659L124.936 85.5043L124.952 85.7383L123.844 86.5182C123.605 86.6846 123.382 86.8094 123.174 86.8926C122.976 86.9654 122.747 87.0018 122.487 87.0018ZM130.597 81.2616L133.467 83.5858C133.519 83.6273 133.545 83.6845 133.545 83.7573C133.545 83.8301 133.519 83.8925 133.467 83.9445L130.597 86.2686C130.587 86.2998 130.561 86.2998 130.519 86.2686C130.488 86.2375 130.478 86.2063 130.488 86.1751L132.095 83.7729L130.488 81.3396C130.478 81.3188 130.488 81.2928 130.519 81.2616C130.561 81.2304 130.587 81.2304 130.597 81.2616ZM128.039 81.2616L130.909 83.5858C130.961 83.6273 130.987 83.6845 130.987 83.7573C130.987 83.8301 130.961 83.8925 130.909 83.9445L128.039 86.2686C128.029 86.2998 128.003 86.2998 127.961 86.2686C127.93 86.2375 127.919 86.2063 127.93 86.1751L129.536 83.7729L127.93 81.3396C127.919 81.3188 127.93 81.2928 127.961 81.2616C128.003 81.2304 128.029 81.2304 128.039 81.2616Z" fill="white"/>
</svg>
